<svg id="visual" viewBox="0 0 1920 1080" width="1920" height="1080" xmlns="http://www.w3.org/2000/svg" xmlns:xlink="http://www.w3.org/1999/xlink" version="1.1"><rect x="0" y="0" width="1920" height="1080" fill="#001220"></rect><defs><linearGradient id="grad1_0" x1="43.8%" y1="0%" x2="100%" y2="100%"><stop offset="14.444444444444446%" stop-color="#fbae3c" stop-opacity="1"></stop><stop offset="85.55555555555554%" stop-color="#fbae3c" stop-opacity="1"></stop></linearGradient></defs><defs><linearGradient id="grad1_1" x1="43.8%" y1="0%" x2="100%" y2="100%"><stop offset="14.444444444444446%" stop-color="#fbae3c" stop-opacity="1"></stop><stop offset="85.55555555555554%" stop-color="#96446e" stop-opacity="1"></stop></linearGradient></defs><defs><linearGradient id="grad1_2" x1="43.8%" y1="0%" x2="100%" y2="100%"><stop offset="14.444444444444446%" stop-color="#001220" stop-opacity="1"></stop><stop offset="85.55555555555554%" stop-color="#96446e" stop-opacity="1"></stop></linearGradient></defs><defs><linearGradient id="grad2_0" x1="0%" y1="0%" x2="56.3%" y2="100%"><stop offset="14.444444444444446%" stop-color="#fbae3c" stop-opacity="1"></stop><stop offset="85.55555555555554%" stop-color="#fbae3c" stop-opacity="1"></stop></linearGradient></defs><defs><linearGradient id="grad2_1" x1="0%" y1="0%" x2="56.3%" y2="100%"><stop offset="14.444444444444446%" stop-color="#96446e" stop-opacity="1"></stop><stop offset="85.55555555555554%" stop-color="#fbae3c" stop-opacity="1"></stop></linearGradient></defs><defs><linearGradient id="grad2_2" x1="0%" y1="0%" x2="56.3%" y2="100%"><stop offset="14.444444444444446%" stop-color="#96446e" stop-opacity="1"></stop><stop offset="85.55555555555554%" stop-color="#001220" stop-opacity="1"></stop></linearGradient></defs><g transform="translate(1920, 0)"><path d="M0 432C-49 402.5 -98 373 -145 350.2C-192.1 327.3 -237.3 311.1 -282.8 282.8C-328.4 254.6 -374.2 214.5 -399.1 165.3C-424 116.2 -428 58.1 -432 0L0 0Z" fill="#3d3056"></path><path d="M0 288C-32.7 268.3 -65.3 248.7 -96.7 233.4C-128.1 218.2 -158.2 207.4 -188.6 188.6C-218.9 169.8 -249.5 143 -266.1 110.2C-282.7 77.5 -285.3 38.7 -288 0L0 0Z" fill="#e1685e"></path><path d="M0 144C-16.3 134.2 -32.7 124.3 -48.3 116.7C-64 109.1 -79.1 103.7 -94.3 94.3C-109.5 84.9 -124.7 71.5 -133 55.1C-141.3 38.7 -142.7 19.4 -144 0L0 0Z" fill="#fbae3c"></path></g><g transform="translate(0, 1080)"><path d="M0 -432C58.2 -428.1 116.4 -424.1 165.3 -399.1C214.2 -374.1 253.7 -328 282.8 -282.8C312 -237.7 330.7 -193.5 353.8 -146.6C377 -99.6 404.5 -49.8 432 0L0 0Z" fill="#3d3056"></path><path d="M0 -288C38.8 -285.4 77.6 -282.8 110.2 -266.1C142.8 -249.4 169.1 -218.7 188.6 -188.6C208 -158.5 220.5 -129 235.9 -97.7C251.3 -66.4 269.7 -33.2 288 0L0 0Z" fill="#e1685e"></path><path d="M0 -144C19.4 -142.7 38.8 -141.4 55.1 -133C71.4 -124.7 84.6 -109.3 94.3 -94.3C104 -79.2 110.2 -64.5 117.9 -48.9C125.7 -33.2 134.8 -16.6 144 0L0 0Z" fill="#fbae3c"></path></g></svg>